<mxfile host="app.diagrams.net" modified="2021-11-01T05:14:46.501Z" agent="5.0 (Windows NT 10.0; Win64; x64) AppleWebKit/537.36 (KHTML, like Gecko) Chrome/95.0.4638.54 Safari/537.36" etag="sEfboFnqkXtn9Rul98rg" version="15.6.3" type="github">
  <diagram id="SuCBj2QPDQb_wyZjVGge" name="Page-1">
    <mxGraphModel dx="1038" dy="579" grid="1" gridSize="10" guides="1" tooltips="1" connect="1" arrows="1" fold="1" page="1" pageScale="1" pageWidth="850" pageHeight="1100" math="0" shadow="0">
      <root>
        <mxCell id="0" />
        <mxCell id="1" parent="0" />
        <mxCell id="zCdfv6MLLbImfpNyONvk-4" value="" style="edgeStyle=orthogonalEdgeStyle;rounded=0;orthogonalLoop=1;jettySize=auto;html=1;fontSize=23;" parent="1" source="zCdfv6MLLbImfpNyONvk-1" edge="1">
          <mxGeometry relative="1" as="geometry">
            <mxPoint x="375" y="180" as="targetPoint" />
          </mxGeometry>
        </mxCell>
        <mxCell id="zCdfv6MLLbImfpNyONvk-1" value="&lt;b&gt;&lt;font style=&quot;font-size: 23px&quot;&gt;Start&lt;/font&gt;&lt;/b&gt;" style="ellipse;whiteSpace=wrap;html=1;" parent="1" vertex="1">
          <mxGeometry x="280" y="50" width="190" height="70" as="geometry" />
        </mxCell>
        <mxCell id="zCdfv6MLLbImfpNyONvk-7" value="" style="edgeStyle=orthogonalEdgeStyle;rounded=0;orthogonalLoop=1;jettySize=auto;html=1;fontSize=23;" parent="1" source="zCdfv6MLLbImfpNyONvk-5" edge="1">
          <mxGeometry relative="1" as="geometry">
            <mxPoint x="378" y="260" as="targetPoint" />
          </mxGeometry>
        </mxCell>
        <mxCell id="zCdfv6MLLbImfpNyONvk-5" value="F=W=C=G=False" style="rounded=0;whiteSpace=wrap;html=1;fontSize=23;" parent="1" vertex="1">
          <mxGeometry x="280" y="180" width="195" height="40" as="geometry" />
        </mxCell>
        <mxCell id="zCdfv6MLLbImfpNyONvk-13" style="edgeStyle=orthogonalEdgeStyle;rounded=0;orthogonalLoop=1;jettySize=auto;html=1;exitX=0.5;exitY=1;exitDx=0;exitDy=0;fontSize=23;" parent="1" source="zCdfv6MLLbImfpNyONvk-45" target="zCdfv6MLLbImfpNyONvk-14" edge="1">
          <mxGeometry relative="1" as="geometry">
            <mxPoint x="375.47058823529414" y="450" as="targetPoint" />
            <mxPoint x="375" y="420" as="sourcePoint" />
          </mxGeometry>
        </mxCell>
        <mxCell id="zCdfv6MLLbImfpNyONvk-46" value="" style="edgeStyle=orthogonalEdgeStyle;rounded=0;orthogonalLoop=1;jettySize=auto;html=1;fontSize=29;" parent="1" source="zCdfv6MLLbImfpNyONvk-6" target="zCdfv6MLLbImfpNyONvk-45" edge="1">
          <mxGeometry relative="1" as="geometry" />
        </mxCell>
        <mxCell id="zCdfv6MLLbImfpNyONvk-6" value="&lt;font style=&quot;font-size: 23px&quot;&gt;Push(E),E=!E&lt;/font&gt;" style="rounded=0;whiteSpace=wrap;html=1;fontSize=23;align=center;" parent="1" vertex="1">
          <mxGeometry x="273.75" y="260" width="202.5" height="40" as="geometry" />
        </mxCell>
        <mxCell id="zCdfv6MLLbImfpNyONvk-17" style="edgeStyle=orthogonalEdgeStyle;rounded=0;orthogonalLoop=1;jettySize=auto;html=1;exitX=1;exitY=0.5;exitDx=0;exitDy=0;fontSize=23;" parent="1" source="zCdfv6MLLbImfpNyONvk-14" target="zCdfv6MLLbImfpNyONvk-18" edge="1">
          <mxGeometry relative="1" as="geometry">
            <mxPoint x="560" y="480.17647058823536" as="targetPoint" />
          </mxGeometry>
        </mxCell>
        <mxCell id="zCdfv6MLLbImfpNyONvk-14" value="IsSafe" style="rhombus;whiteSpace=wrap;html=1;fontSize=23;" parent="1" vertex="1">
          <mxGeometry x="275.68" y="450" width="198.63" height="60" as="geometry" />
        </mxCell>
        <mxCell id="zCdfv6MLLbImfpNyONvk-21" style="edgeStyle=orthogonalEdgeStyle;rounded=0;orthogonalLoop=1;jettySize=auto;html=1;exitX=0.5;exitY=1;exitDx=0;exitDy=0;fontSize=20;" parent="1" source="zCdfv6MLLbImfpNyONvk-18" edge="1">
          <mxGeometry relative="1" as="geometry">
            <mxPoint x="620.1764705882354" y="550" as="targetPoint" />
          </mxGeometry>
        </mxCell>
        <mxCell id="zCdfv6MLLbImfpNyONvk-18" value="&lt;font style=&quot;font-size: 20px&quot;&gt;F=W=C=G=True&lt;/font&gt;" style="rhombus;whiteSpace=wrap;html=1;fontSize=23;" parent="1" vertex="1">
          <mxGeometry x="520" y="455" width="200" height="50" as="geometry" />
        </mxCell>
        <mxCell id="zCdfv6MLLbImfpNyONvk-19" value="True" style="text;html=1;strokeColor=none;fillColor=none;align=center;verticalAlign=middle;whiteSpace=wrap;rounded=0;fontSize=20;" parent="1" vertex="1">
          <mxGeometry x="370" y="410" width="60" height="30" as="geometry" />
        </mxCell>
        <mxCell id="zCdfv6MLLbImfpNyONvk-22" value="True" style="text;html=1;strokeColor=none;fillColor=none;align=center;verticalAlign=middle;whiteSpace=wrap;rounded=0;fontSize=20;" parent="1" vertex="1">
          <mxGeometry x="630" y="510" width="60" height="30" as="geometry" />
        </mxCell>
        <mxCell id="zCdfv6MLLbImfpNyONvk-23" value="&lt;b&gt;&lt;font style=&quot;font-size: 29px&quot;&gt;End&lt;/font&gt;&lt;/b&gt;" style="ellipse;whiteSpace=wrap;html=1;fontSize=20;" parent="1" vertex="1">
          <mxGeometry x="520" y="550" width="200" height="80" as="geometry" />
        </mxCell>
        <mxCell id="zCdfv6MLLbImfpNyONvk-34" value="" style="endArrow=none;html=1;rounded=0;fontSize=29;" parent="1" edge="1">
          <mxGeometry width="50" height="50" relative="1" as="geometry">
            <mxPoint x="620" y="335" as="sourcePoint" />
            <mxPoint x="620" y="280" as="targetPoint" />
          </mxGeometry>
        </mxCell>
        <mxCell id="zCdfv6MLLbImfpNyONvk-38" value="" style="endArrow=classic;html=1;rounded=0;fontSize=29;" parent="1" edge="1">
          <mxGeometry width="50" height="50" relative="1" as="geometry">
            <mxPoint x="620" y="280" as="sourcePoint" />
            <mxPoint x="480" y="280" as="targetPoint" />
          </mxGeometry>
        </mxCell>
        <mxCell id="zCdfv6MLLbImfpNyONvk-39" value="False" style="text;html=1;strokeColor=none;fillColor=none;align=center;verticalAlign=middle;whiteSpace=wrap;rounded=0;fontSize=20;" parent="1" vertex="1">
          <mxGeometry x="520" y="250" width="60" height="30" as="geometry" />
        </mxCell>
        <mxCell id="zCdfv6MLLbImfpNyONvk-42" value="False" style="text;html=1;strokeColor=none;fillColor=none;align=center;verticalAlign=middle;whiteSpace=wrap;rounded=0;fontSize=20;" parent="1" vertex="1">
          <mxGeometry x="215.68" y="440" width="60" height="30" as="geometry" />
        </mxCell>
        <mxCell id="zCdfv6MLLbImfpNyONvk-44" value="E in (F,W,C,G)" style="text;html=1;strokeColor=none;fillColor=none;align=center;verticalAlign=middle;whiteSpace=wrap;rounded=0;fontSize=29;" parent="1" vertex="1">
          <mxGeometry x="580" y="60" width="240" height="80" as="geometry" />
        </mxCell>
        <mxCell id="zCdfv6MLLbImfpNyONvk-49" value="" style="edgeStyle=orthogonalEdgeStyle;rounded=0;orthogonalLoop=1;jettySize=auto;html=1;fontSize=20;" parent="1" source="zCdfv6MLLbImfpNyONvk-45" target="zCdfv6MLLbImfpNyONvk-48" edge="1">
          <mxGeometry relative="1" as="geometry" />
        </mxCell>
        <mxCell id="zCdfv6MLLbImfpNyONvk-45" value="&lt;font style=&quot;font-size: 20px&quot;&gt;IsValid&lt;/font&gt;" style="rhombus;whiteSpace=wrap;html=1;fontSize=29;align=center;" parent="1" vertex="1">
          <mxGeometry x="266.25" y="350" width="217.5" height="50" as="geometry" />
        </mxCell>
        <mxCell id="zCdfv6MLLbImfpNyONvk-47" value="True" style="text;html=1;strokeColor=none;fillColor=none;align=center;verticalAlign=middle;whiteSpace=wrap;rounded=0;fontSize=20;" parent="1" vertex="1">
          <mxGeometry x="460" y="440" width="60" height="30" as="geometry" />
        </mxCell>
        <mxCell id="zCdfv6MLLbImfpNyONvk-48" value="Pop(E),E=!E" style="rounded=0;whiteSpace=wrap;html=1;fontSize=20;" parent="1" vertex="1">
          <mxGeometry x="30" y="355" width="180" height="40" as="geometry" />
        </mxCell>
        <mxCell id="zCdfv6MLLbImfpNyONvk-50" value="False" style="text;html=1;strokeColor=none;fillColor=none;align=center;verticalAlign=middle;whiteSpace=wrap;rounded=0;fontSize=20;" parent="1" vertex="1">
          <mxGeometry x="210" y="340" width="60" height="30" as="geometry" />
        </mxCell>
        <mxCell id="zCdfv6MLLbImfpNyONvk-53" value="" style="endArrow=none;html=1;rounded=0;fontSize=20;exitX=0;exitY=0.5;exitDx=0;exitDy=0;" parent="1" source="zCdfv6MLLbImfpNyONvk-14" edge="1">
          <mxGeometry width="50" height="50" relative="1" as="geometry">
            <mxPoint x="430" y="320" as="sourcePoint" />
            <mxPoint x="120" y="480" as="targetPoint" />
          </mxGeometry>
        </mxCell>
        <mxCell id="zCdfv6MLLbImfpNyONvk-54" value="" style="endArrow=classic;html=1;rounded=0;fontSize=20;entryX=0.5;entryY=1;entryDx=0;entryDy=0;" parent="1" target="zCdfv6MLLbImfpNyONvk-48" edge="1">
          <mxGeometry width="50" height="50" relative="1" as="geometry">
            <mxPoint x="120" y="480" as="sourcePoint" />
            <mxPoint x="480" y="270" as="targetPoint" />
          </mxGeometry>
        </mxCell>
        <mxCell id="zCdfv6MLLbImfpNyONvk-56" value="" style="endArrow=none;html=1;rounded=0;fontSize=20;exitX=0.5;exitY=0;exitDx=0;exitDy=0;" parent="1" source="zCdfv6MLLbImfpNyONvk-18" edge="1">
          <mxGeometry width="50" height="50" relative="1" as="geometry">
            <mxPoint x="430" y="320" as="sourcePoint" />
            <mxPoint x="620" y="330" as="targetPoint" />
          </mxGeometry>
        </mxCell>
        <mxCell id="zCdfv6MLLbImfpNyONvk-57" value="" style="endArrow=none;html=1;rounded=0;fontSize=20;exitX=0.5;exitY=0;exitDx=0;exitDy=0;" parent="1" source="zCdfv6MLLbImfpNyONvk-48" edge="1">
          <mxGeometry width="50" height="50" relative="1" as="geometry">
            <mxPoint x="430" y="320" as="sourcePoint" />
            <mxPoint x="120" y="280" as="targetPoint" />
          </mxGeometry>
        </mxCell>
        <mxCell id="zCdfv6MLLbImfpNyONvk-58" value="" style="endArrow=classic;html=1;rounded=0;fontSize=20;" parent="1" edge="1">
          <mxGeometry width="50" height="50" relative="1" as="geometry">
            <mxPoint x="120" y="280" as="sourcePoint" />
            <mxPoint x="270" y="280" as="targetPoint" />
          </mxGeometry>
        </mxCell>
      </root>
    </mxGraphModel>
  </diagram>
</mxfile>
